<svg width="438" height="430" viewBox="0 0 438 430" fill="none" xmlns="http://www.w3.org/2000/svg">
<rect width="438" height="430" fill="#E5E5E5"/>
<ellipse cx="219.5" cy="284" rx="218.5" ry="146" fill="#F0A513"/>
<path d="M62.5825 37.0365L176.851 152.955L59.7948 199.784L62.5825 37.0365Z" fill="#F1DA0D"/>
<path d="M62.501 41.7971C62.5313 40.0251 64.6809 39.1652 65.925 40.4273L174.739 150.812C175.742 151.83 175.384 153.542 174.057 154.073L62.5889 198.666C61.2616 199.197 59.8219 198.204 59.8463 196.775L62.501 41.7971Z" fill="#F1A40D"/>
<path d="M357.132 22.7718L378.331 196.515L238.946 151.877L357.132 22.7718Z" fill="#F59D1A"/>
<path d="M208.819 246.322C213.517 238.79 224.483 238.79 229.181 246.322L248.256 276.899C253.242 284.892 247.495 295.25 238.074 295.25H199.926C190.505 295.25 184.758 284.892 189.744 276.899L208.819 246.322Z" fill="#ED1DCC"/>
<ellipse cx="205.5" cy="279" rx="6.5" ry="5" fill="#E88AE4"/>
<ellipse cx="236" cy="279" rx="6" ry="5" fill="#D8A7D9"/>
<line x1="219.5" y1="295" x2="219.5" y2="337" stroke="black"/>
<path d="M129 291C131.918 295.203 135.652 298.549 139 302.349C140.803 304.396 143.378 309.224 145.5 310.294C151.846 313.495 156.347 322.172 163.5 323.976C165.346 324.442 167.576 326.922 169.444 327.885C171.237 328.81 173.247 329.223 175 330.218C179.336 332.679 183.898 334.073 188.556 335.515C190.294 336.053 189.956 337.532 192 337.532C198.4 337.532 205.121 337.922 211.333 339.802C215.015 340.916 218.374 340.937 222.222 340.937C242.026 340.937 268.433 342.841 283.556 325.679C285.235 323.773 288.66 321.738 290.556 320.508C293.419 318.652 295.992 315.855 298 312.816C300.397 309.189 309 305.042 309 300.079" stroke="black" stroke-linecap="round" stroke-linejoin="round"/>
<path d="M350.844 60.8067L352.785 172.114L270.445 137.808L350.844 60.8067Z" fill="#EDAAE7"/>
<path d="M71.1702 62.491L158.176 145.528L69.547 182.752L71.1702 62.491Z" fill="#F3B9ED"/>
<ellipse cx="158" cy="215" rx="29" ry="42" fill="#E5E5E5"/>
<ellipse cx="289" cy="215" rx="29" ry="42" fill="#E5E5E5"/>
<ellipse cx="158" cy="228" rx="14" ry="22" fill="black"/>
<ellipse cx="289" cy="228" rx="14" ry="22" fill="black"/>
<line x1="20" y1="227.5" x2="70" y2="227.5" stroke="black"/>
<line x1="69.9631" y1="229.447" x2="19.999" y2="227.552" stroke="black"/>
<line x1="0.995891" y1="279.085" x2="59.9843" y2="277.916" stroke="black"/>
<line x1="1.01744" y1="276.869" x2="60.0039" y2="278.131" stroke="black"/>
<line x1="20" y1="340.5" x2="60" y2="340.5" stroke="black"/>
<line x1="20" y1="340.5" x2="60" y2="340.5" stroke="black"/>
<line x1="20.1513" y1="338.494" x2="59.9491" y2="342.511" stroke="black"/>
<line x1="426" y1="235.5" x2="351" y2="235.5" stroke="black"/>
<line x1="426.026" y1="238.527" x2="350.947" y2="236.473" stroke="black"/>
<line x1="438" y1="291.5" x2="341" y2="291.5" stroke="black"/>
<line x1="437.916" y1="288.099" x2="341.154" y2="294.898" stroke="black"/>
<line x1="404.921" y1="366.253" x2="341.009" y2="361.745" stroke="black"/>
<line x1="405" y1="366.5" x2="341" y2="366.5" stroke="black"/>
</svg>
